<svg width="128" height="128" viewBox="0 0 24 24" xmlns="http://www.w3.org/2000/svg" fill="none">
    <defs>
        <linearGradient id="basketballGradient" x1="0%" y1="0%" x2="100%" y2="100%">
            <stop offset="0%" style="stop-color:#f97316; stop-opacity:1" />
            <stop offset="100%" style="stop-color:#ea580c; stop-opacity:1" />
        </linearGradient>
    </defs>
    <circle cx="12" cy="12" r="10" fill="url(#basketballGradient)"/>
    <path stroke="#171717" stroke-linecap="round" stroke-linejoin="round" stroke-width="0.8" d="M12 2a10 10 0 0 0-10 10a10 10 0 0 0 10 10a10 10 0 0 0 10-10A10 10 0 0 0 12 2Z"/>
    <path stroke="#171717" stroke-linecap="round" stroke-linejoin="round" stroke-width="0.8" d="M2.5 9.5C5.5 11 9 12 12 12s6.5-1 9.5-2.5"/>
    <path stroke="#171717" stroke-linecap="round" stroke-linejoin="round" stroke-width="0.8" d="M2.5 14.5C5.5 13 9 12 12 12s6.5 1 9.5 2.5"/>
    <path stroke="#171717" stroke-linecap="round" stroke-linejoin="round" stroke-width="0.8" d="M12 2C9 5 9 12 12 12s3-7 0-10Z"/>
    <path stroke="#171717" stroke-linecap="round" stroke-linejoin="round" stroke-width="0.8" d="M12 22c-3-3-3-10 0-10s3 7 0 10Z"/>
</svg>
